PathFileType	4	(X/Y/Z)	Kaydara																																																																																																																									
DataRate	CameraRate	NumFrames	NumMarkers	Units	OrigDataRate	OrigDataStartFrame	OrigNumFrames																																																																																																																					
30	30	4	41	mm	30	259	345																																																																																																																					
Frame#	Time	NABA_LFHD			NABA_RFHD			NABA_LBHD			NABA_RBHD			NABA_LFTShould			NABA_RFTShould			NABA_LRRShould			NABA_RRRShould			NABA_T10			NABA_STRN			NABA_TRUN			NABA_LSHO			NABA_LUPA			NABA_LELB			NABA_LFRM			NABA_LWRA			NABA_LWRB			NABA_LFIN			NABA_RSHO			NABA_RUPA			NABA_RELB			NABA_RFRM			NABA_RWRA			NABA_RWRB			NABA_RFIN			NABA_LFWT			NABA_RFWT			NABA_LBWT			NABA_RBWT			NABA_LTHI			NABA_LKNE			NABA_LSHN			NABA_LANK			NABA_LHEE			NABA_LTOE			NABA_RTHI			NABA_RKNE			NABA_RSHN			NABA_RANK			NABA_RHEE			NABA_RTOE		
		X1	Y1	Z1	X2	Y2	Z2	X3	Y3	Z3	X4	Y4	Z4	X5	Y5	Z5	X6	Y6	Z6	X7	Y7	Z7	X8	Y8	Z8	X9	Y9	Z9	X10	Y10	Z10	X11	Y11	Z11	X12	Y12	Z12	X13	Y13	Z13	X14	Y14	Z14	X15	Y15	Z15	X16	Y16	Z16	X17	Y17	Z17	X18	Y18	Z18	X19	Y19	Z19	X20	Y20	Z20	X21	Y21	Z21	X22	Y22	Z22	X23	Y23	Z23	X24	Y24	Z24	X25	Y25	Z25	X26	Y26	Z26	X27	Y27	Z27	X28	Y28	Z28	X29	Y29	Z29	X30	Y30	Z30	X31	Y31	Z31	X32	Y32	Z32	X33	Y33	Z33	X34	Y34	Z34	X35	Y35	Z35	X36	Y36	Z36	X37	Y37	Z37	X38	Y38	Z38	X39	Y39	Z39	X40	Y40	Z40	X41	Y41	Z41
																																																																																																																												
259	8.61	329.7274	1446.15662	1053.37196	160.35257	1414.41681	1056.97205	341.96144	1521.47736	952.1328	125.72309	1476.82556	983.61023	316.8154	1287.25861	890.52597	182.33006	1283.42438	895.62378	312.31258	1351.3588	777.01149	162.38667	1346.85898	790.02579	243.043	1192.99072	693.53394	252.52192	1227.8273	935.17029	255.20441	1127.61497	975.71342	414.70932	1311.06262	835.84045	468.12817	1072.99805	788.6055	477.34379	987.74002	809.19319	468.66726	917.04292	783.60954	413.81142	766.19606	854.8217	486.7971	766.30798	850.53436	466.47064	705.98549	890.40665	85.34276	1308.01941	856.8309	31.44723	1107.01698	779.53804	7.91689	982.61948	817.48795	6.64747	887.78458	822.35336	81.98126	764.97276	895.33058	8.82225	750.14221	896.82571	27.54814	713.09898	925.12581	380.47623	912.4678	884.35005	115.49345	908.07411	897.10632	319.89178	977.93808	716.65215	150.7625	984.13727	720.06302	368.8821	627.28676	710.20035	367.11617	471.24081	743.28255	304.88535	274.19474	723.20953	322.27501	146.02359	614.39758	261.37964	116.74341	547.36229	290.27588	48.77145	716.41113	108.3749	611.73717	811.54053	132.61943	486.17393	961.77811	141.92266	319.63221	994.9501	133.98842	117.33492	995.43518	182.15471	51.61773	945.35828	172.54044	82.95808	1146.94382
260	8.643	326.18366	1447.44293	1070.77034	156.8197	1415.38025	1075.28053	337.67677	1522.87094	969.5047	121.70259	1477.71103	1002.16721	312.6339	1288.13675	907.67265	178.31406	1283.96912	913.60985	307.38977	1353.05573	794.77119	157.68801	1347.97867	808.56712	238.35548	1194.8381	710.6842	248.99885	1228.34457	952.62611	252.21004	1128.00888	992.87933	410.24208	1312.47772	852.54738	463.42312	1075.10124	802.58896	473.48392	989.75288	822.56943	464.97799	919.33968	796.40701	412.15622	767.33955	866.66351	485.06023	768.00713	861.52206	465.89024	707.21352	900.96291	81.11401	1308.68179	875.63332	27.38146	1107.84698	798.01399	4.42554	983.25073	835.63637	2.78268	888.71376	839.66972	77.82947	765.05066	910.77019	4.70831	750.36522	912.79724	23.74748	712.56027	940.36728	376.20663	912.51442	899.80156	111.50676	910.31464	913.38135	315.32454	979.47052	732.78961	147.12565	987.41127	736.43951	365.49736	628.41896	724.3351	364.49074	472.31613	756.41327	303.65898	275.49437	730.98763	322.9216	150.45402	618.91354	262.60536	122.64551	550.75912	290.7102	48.81911	717.72377	104.98856	614.16374	824.37805	130.71053	486.64009	973.09113	140.63215	318.77571	1002.91161	133.84763	116.28051	999.2115	182.59876	52.6991	947.81128	172.94287	75.78469	1150.82443
261	8.677	322.03426	1448.78662	1089.26987	152.7888	1416.16379	1094.189	333.10093	1524.2186	987.9612	117.33585	1478.32993	1021.10283	308.5145	1289.68582	925.48439	174.33458	1285.1326	931.77155	302.76031	1354.935	812.85172	153.16478	1349.55994	827.34314	233.6562	1197.01706	728.33839	245.08802	1229.77104	970.43594	248.60022	1129.24667	1010.29564	405.96817	1314.80667	870.23933	458.46844	1078.24501	817.44675	469.24644	992.93427	836.48643	460.54291	922.66624	809.68872	410.26436	769.73289	879.09966	482.45834	770.86388	873.0188	464.398	709.58733	912.3465	76.91247	1310.19714	894.54918	22.93079	1109.60945	817.37785	0.37293	984.99786	854.83879	-1.591	890.62515	858.13828	73.75216	765.89447	927.02721	0.49106	751.69632	930.11757	19.78644	713.31657	956.91376	371.68812	913.39607	915.57976	106.7846	912.19292	930.14107	311.27598	981.25046	749.47258	142.66378	989.60014	753.23471	362.39044	630.36156	738.67867	362.58015	474.15436	770.03845	303.48536	277.43877	739.36028	324.06799	155.70698	624.00997	264.32255	129.63369	554.87808	291.66691	48.64385	719.30511	100.70856	616.36402	837.34451	127.08164	485.93277	983.433	138.46241	317.82507	1010.76965	132.57196	115.5193	1003.82225	181.27211	53.73193	950.40733	174.82567	68.6779	1154.70894
262	8.71	317.67649	1449.4722	1108.2605	148.48269	1416.38596	1113.22128	328.35659	1525.37567	1007.27219	112.74977	1478.82874	1040.46936	304.16056	1291.15509	943.58253	170.12598	1286.24908	950.22499	297.96467	1356.76834	831.42929	148.4422	1350.99915	846.29257	228.64439	1199.04221	746.40091	240.935	1231.129	988.50456	244.66722	1130.5101	1028.00461	401.52458	1316.85059	888.28506	454.23416	1081.31859	833.3239	465.2623	995.74707	851.15074	456.27979	925.58556	823.84506	406.85921	772.27646	893.11302	479.14612	773.28934	885.71228	461.63017	711.66023	924.90219	72.67259	1311.52878	913.43315	17.56191	1111.18851	836.77292	-4.19995	986.42471	873.98239	-6.31145	892.13966	876.87416	69.59552	766.59561	943.59917	-3.825	752.83043	948.1163	15.89513	714.18213	974.48647	366.95435	914.56429	931.6301	102.10403	913.61382	947.68723	306.74099	982.7935	766.50734	136.99377	991.47232	770.88867	359.0012	632.72034	753.24173	361.64772	476.46584	783.42514	305.12302	279.80755	748.14232	326.65394	161.46391	629.02424	267.24386	137.12865	559.71458	293.14932	48.30059	721.21124	95.70736	618.26496	850.80482	123.16197	485.02117	994.68033	135.42772	316.72314	1018.39127	131.36363	114.58003	1007.80014	180.37148	54.64897	952.83493	173.5075	61.69839	1158.45787
